HIERARCHY
ROOT root
{
	OFFSET	0	13.1	24.9
	CHANNELS 6  Xposition Yposition Zposition Xrotation Yrotation Zrotation
	JOINT spine_1
	{
		OFFSET	0	9.99999	0
		CHANNELS 3  Xrotation Yrotation Zrotation
		JOINT spine_2
		{
			OFFSET	0	112	-10
			CHANNELS 3  Xrotation Yrotation Zrotation
			JOINT spine_3
			{
				OFFSET	0	206.5	19.3
				CHANNELS 3  Xrotation Yrotation Zrotation
				JOINT spine_4
				{
					OFFSET	0	110.4	14.6
					CHANNELS 3  Xrotation Yrotation Zrotation
					JOINT neck_1
					{
						OFFSET	0	71.8	-50.3
						CHANNELS 3  Xrotation Yrotation Zrotation
						JOINT neck_2
						{
							OFFSET	0	86.2	-25.8
							CHANNELS 3  Xrotation Yrotation Zrotation
							JOINT head_ee
							{
								OFFSET	0	179.8	-8.7
								CHANNELS 3  Xrotation Yrotation Zrotation
								End Site
								{
									OFFSET	1	0	0
								}
							}
						}
					}
					JOINT left_clavicle
					{
						OFFSET	-43.2	22.4	-70.8
						CHANNELS 3  Xrotation Yrotation Zrotation
						JOINT left_shoulder
						{
							OFFSET	-93.9	-5.79999	48.7
							CHANNELS 3  Xrotation Yrotation Zrotation
							JOINT left_elbow
							{
								OFFSET	-291.4	-30.8	15.2
								CHANNELS 3  Xrotation Yrotation Zrotation
								JOINT left_lowarm_twist
								{
									OFFSET	-110.7	-3.89999	13.6
									CHANNELS 3  Xrotation Yrotation Zrotation
									JOINT left_hand
									{
										OFFSET	-110.7	-3.89999	13.6
										CHANNELS 3  Xrotation Yrotation Zrotation
										JOINT left_ee
										{
											OFFSET	-80.8	-5.10001	12.1
											CHANNELS 3  Xrotation Yrotation Zrotation
											End Site
											{
												OFFSET	1	0	0
											}
										}
									}
								}
							}
						}
					}
					JOINT right_clavicle
					{
						OFFSET	43.2	22.4	-70.8
						CHANNELS 3  Xrotation Yrotation Zrotation
						JOINT right_shoulder
						{
							OFFSET	93.9	-5.79999	48.7
							CHANNELS 3  Xrotation Yrotation Zrotation
							JOINT right_elbow
							{
								OFFSET	291.4	-30.8	15.2
								CHANNELS 3  Xrotation Yrotation Zrotation
								JOINT right_lowarm_twist
								{
									OFFSET	110.7	-3.89999	13.6
									CHANNELS 3  Xrotation Yrotation Zrotation
									JOINT right_hand
									{
										OFFSET	110.7	-3.89999	13.6
										CHANNELS 3  Xrotation Yrotation Zrotation
										JOINT right_ee
										{
											OFFSET	80.8	-5.10001	12.1
											CHANNELS 3  Xrotation Yrotation Zrotation
											End Site
											{
												OFFSET	1	0	0
											}
										}
									}
								}
							}
						}
					}
				}
			}
		}
	}
	JOINT left_hip
	{
		OFFSET	-82.8	-127.5	0.300001
		CHANNELS 3  Xrotation Yrotation Zrotation
		JOINT left_knee
		{
			OFFSET	-28.2	-396.7	2.2
			CHANNELS 3  Xrotation Yrotation Zrotation
			JOINT left_ankle
			{
				OFFSET	-11.7	-411.3	35.4
				CHANNELS 3  Xrotation Yrotation Zrotation
				JOINT left_toes
				{
					OFFSET	0	-60	-88.6
					CHANNELS 3  Xrotation Yrotation Zrotation
					JOINT left_foot_ee
					{
						OFFSET	-22.5	-16.5	-42.2
						CHANNELS 3  Xrotation Yrotation Zrotation
						End Site
						{
							OFFSET	1	0	0
						}
					}
				}
			}
		}
	}
	JOINT right_hip
	{
		OFFSET	82.8	-127.5	0.300001
		CHANNELS 3  Xrotation Yrotation Zrotation
		JOINT right_knee
		{
			OFFSET	28.2	-396.7	2.2
			CHANNELS 3  Xrotation Yrotation Zrotation
			JOINT right_ankle
			{
				OFFSET	11.7	-411.3	35.4
				CHANNELS 3  Xrotation Yrotation Zrotation
				JOINT right_toes
				{
					OFFSET	0	-60	-88.6
					CHANNELS 3  Xrotation Yrotation Zrotation
					JOINT right_foot_ee
					{
						OFFSET	22.5	-16.5	-42.2
						CHANNELS 3  Xrotation Yrotation Zrotation
						End Site
						{
							OFFSET	1	0	0
						}
					}
				}
			}
		}
	}
}
MOTION
Frames: 6
Frame Time: 0.02
2943.27 733.65 -430.144 166.029 -51.8891 170.769 -3.25992 0.238709 0.515305 -3.2598 0.205435 0.52945 -3.25763 0.0575611 0.564984 -3.25805 0.146066 0.548804 3.78259 6.3538 -4.43475 4.14352 14.8143 -4.64345 -0.0 0.0 -0.0 9.17114 21.2856 15.9457 -26.304 -17.7918 57.7505 0.399811 -11.2029 0.0392123 -22.0204 -1.27193 2.49457 4.01406 10.1628 31.6695 -0.0 0.0 -0.0 11.2163 12.2784 -22.4938 -6.56178 15.1876 -48.4349 2.40879 50.0277 -1.12407 -47.2508 3.75316 -4.53145 -3.59317 -6.47566 21.257 0.0 0.0 0.0 13.7966 -0.0843958 -8.32451 -1.11118 0.0441562 0.164806 0.848128 29.5066 -0.132786 -31.5244 0.0 0.0 -0.0 0.0 -0.0 -9.00976 10.0661 6.3545 -29.3738 -0.0675417 -4.45821 11.4052 20.8381 1.83739 23.8357 -0.0 -0.0 0.0 0.0 0.0 
2970.29 733.191 -428.661 165.902 -51.177 170.469 -2.89199 0.202366 0.33763 -2.89194 0.180472 0.349822 -2.89072 0.0836273 0.384645 -2.8909 0.143325 0.366611 2.6192 6.18688 -3.22608 2.86714 13.5478 -3.14314 -0.0 0.0 -0.0 9.34943 22.7434 15.9878 -25.7487 -18.2252 58.0951 0.434451 -12.1458 0.0462218 -24.0107 -1.43244 2.6927 3.95444 10.6994 31.3825 -0.0 0.0 -0.0 10.612 11.5918 -21.1577 -7.32773 14.9411 -49.9026 2.20054 47.4616 -0.967475 -47.1424 3.74074 -4.52516 -3.69745 -4.9007 22.8774 0.0 0.0 0.0 13.74 1.09022 -8.0044 -3.80039 0.137712 0.566879 -2.18623 28.9184 0.34309 -29.7828 0.0 0.0 -0.0 0.0 -0.0 -11.6234 11.3416 7.5887 -28.3561 -0.103512 -4.30617 13.0493 21.7591 2.10572 23.1733 -0.0 -0.0 0.0 0.0 0.0 
2995.46 734.141 -427.646 166.038 -50.7418 170.837 -2.75164 0.326108 0.126154 -2.75168 0.31742 0.14665 -2.75088 0.269105 0.223259 -2.75082 0.300987 0.177957 2.72107 6.30125 -0.922461 2.86975 11.7917 -0.571466 -0.0 0.0 -0.0 10.0682 25.0427 16.6348 -26.3546 -19.1966 56.0753 0.48947 -13.6296 0.0584943 -25.8749 -1.58896 2.87317 3.65035 11.8582 29.4535 -0.0 0.0 -0.0 11.0675 12.0014 -22.1653 -7.69189 11.7892 -49.9557 1.93096 43.723 -0.774796 -45.5722 3.5623 -4.43153 -3.86693 -2.86607 25.2445 0.0 0.0 0.0 13.3068 -0.737904 -7.41759 -5.67458 0.191697 0.849429 -4.87138 29.4479 0.770877 -28.4482 0.0 0.0 -0.0 0.0 -0.0 -11.9128 12.0934 8.0246 -28.5266 -0.0976761 -4.33168 11.4563 23.291 1.89102 23.1608 -0.0 -0.0 0.0 0.0 0.0 
3020.89 736.827 -423.86 166.407 -50.576 171.078 -2.54859 0.187772 -0.00964248 -2.54861 0.188005 0.00232554 -2.54863 0.181278 0.049898 -2.54858 0.186883 0.0206423 1.92908 7.61516 2.07938 2.04321 11.6409 2.90884 -0.0 0.0 -0.0 9.85327 24.8249 16.3647 -26.1752 -18.4086 56.0385 0.733506 -19.969 0.129134 -27.7305 -1.75055 3.0477 3.18571 15.5684 27.1685 -0.0 0.0 -0.0 10.1889 16.1722 -20.0595 -10.1273 10.8617 -52.2733 1.75629 41.0201 -0.657045 -42.9894 3.27455 -4.267 -3.74239 0.316669 26.0607 0.0 0.0 0.0 14.5492 -5.763 -6.91932 -12.366 0.30848 1.869 -3.64839 29.1297 0.574905 -25.304 0.0 0.0 -0.0 0.0 -0.0 -12.9446 12.7226 8.70457 -27.0924 -0.144406 -4.11654 7.25847 23.6685 1.22378 21.9844 -0.0 -0.0 0.0 0.0 0.0 
3051.17 745.808 -422.483 166.177 -51.5434 170.361 -2.55369 0.0924869 -0.159998 -2.55368 0.102481 -0.153789 -2.55396 0.138123 -0.122781 -2.55396 0.116998 -0.143054 0.115626 7.66564 2.97404 0.20906 11.2193 3.99506 -0.0 0.0 -0.0 10.1596 24.2926 16.9177 -25.6224 -16.7218 55.7076 0.882604 -23.6155 0.184513 -29.6246 -1.92125 3.22041 2.88254 15.2128 24.944 -0.0 0.0 -0.0 10.293 16.145 -20.2935 -12.0297 10.5781 -51.7526 1.39805 34.7028 -0.436842 -40.426 2.99659 -4.09109 -3.41295 2.83645 24.9203 0.0 0.0 0.0 16.3132 -5.34209 -5.38246 -16.682 0.320386 2.53094 -5.39068 29.3144 0.853036 -24.8203 0.0 0.0 -0.0 0.0 -0.0 -13.2776 13.7139 8.01314 -26.6107 -0.15889 -4.04404 7.85292 25.9299 1.35499 22.0183 -0.0 -0.0 0.0 0.0 0.0 
3078.6 748.939 -419.944 167.116 -52.737 171.216 -2.0007 -0.0668541 -0.462355 -2.00059 -0.0372981 -0.465672 -2.00016 0.0775356 -0.460684 -2.00045 0.0038069 -0.467148 0.963683 9.09771 1.33727 1.13844 15.0068 2.29191 -0.0 0.0 -0.0 9.93761 24.4723 16.5554 -24.454 -16.9352 56.4127 0.991469 -26.1572 0.230337 -31.9244 -2.13609 3.42244 2.32743 18.8055 22.2183 -0.0 0.0 -0.0 8.9138 18.2678 -17.1066 -15.5621 9.88211 -55.3751 1.31016 32.9827 -0.387888 -36.6128 2.59835 -3.80693 -2.53344 5.23235 19.6798 0.0 0.0 0.0 16.4752 -13.3443 -3.25864 -20.7077 0.286555 3.14756 -0.748853 28.9678 0.117221 -20.778 0.0 0.0 -0.0 0.0 -0.0 -13.5041 13.5797 8.00763 -26.2654 -0.168899 -3.99198 5.0045 26.1077 0.874654 22.4814 -0.0 -0.0 0.0 0.0 0.0 
